<?xml version="1.0" encoding="utf-8"?>
<!-- Generator: Adobe Illustrator 19.1.0, SVG Export Plug-In . SVG Version: 6.00 Build 0)  -->
<!DOCTYPE svg PUBLIC "-//W3C//DTD SVG 1.1//EN" "http://www.w3.org/Graphics/SVG/1.1/DTD/svg11.dtd">
<svg version="1.1" id="Layer_1" xmlns="http://www.w3.org/2000/svg" xmlns:xlink="http://www.w3.org/1999/xlink" x="0px" y="0px"
	 viewBox="0 0 469.4 159.5" style="enable-background:new 0 0 469.4 159.5;" xml:space="preserve">
<style type="text/css">
	.st0{fill:none;stroke:#333333;stroke-width:3.7994;stroke-miterlimit:10;}
	.st1{fill:none;stroke:#333333;stroke-width:3.7994;stroke-linejoin:round;stroke-miterlimit:10;}
	.st2{fill:none;stroke:#333333;stroke-width:3.7994;stroke-linecap:round;stroke-linejoin:round;stroke-miterlimit:10;}
	.st3{fill:#333333;}
	.st4{fill:none;stroke:#3BB54A;stroke-width:3.7994;stroke-miterlimit:10;}
	.st5{fill:none;stroke:#3BB54A;stroke-width:3.7994;stroke-linejoin:round;stroke-miterlimit:10;}
	.st6{fill:none;stroke:#3BB54A;stroke-width:3.7994;stroke-linecap:round;stroke-linejoin:round;stroke-miterlimit:10;}
	.st7{fill:#3BB54A;}
	.st8{fill:none;stroke:#333333;stroke-width:4;stroke-linecap:round;stroke-linejoin:round;stroke-miterlimit:10;}
	.st9{fill:none;stroke:#3BB54A;stroke-width:4;stroke-linecap:round;stroke-linejoin:round;stroke-miterlimit:10;}
</style>
<g>
	<circle class="st0" cx="29.1" cy="32.5" r="7.9"/>
	<path class="st0" d="M14.6,55c0-4.8,6.5-8.7,14.5-8.7s14.5,3.9,14.5,8.7"/>
	<path class="st1" d="M49,62.5H7.5c-1.2,0-2.1-1-2.1-2.1V17.9c0-1.2,1-2.1,2.1-2.1H49c1.2,0,2.1,1,2.1,2.1v42.5
		C51.1,61.5,50.2,62.5,49,62.5z"/>
</g>
<circle class="st0" cx="263.7" cy="43.6" r="9.7"/>
<path class="st1" d="M278.8,58.6h-41.5c-1.2,0-2.1-1-2.1-2.1v-32c0-1.2,1-2.1,2.1-2.1h41.5c1.2,0,2.1,1,2.1,2.1v32
	C280.9,57.6,280,58.6,278.8,58.6z"/>
<g>
	<path class="st1" d="M145.6,21.4h41.1c2.4,0,4.4,2,4.4,4.4V68"/>
</g>
<g>
	<path class="st1" d="M205.4,54.3h-41.1c-2.4,0-4.4-2-4.4-4.4V7.7"/>
</g>
<g>
	<path class="st2" d="M433.6,27.6h9.3c2.2,0,4,1.8,4,4v26.9c0,2.2-1.8,4-4,4h-37.8c-2.2,0-4-1.8-4-4V31.5c0-2.2,1.8-4,4-4h9.3"/>
	<g>
		<polyline class="st2" points="414.4,19.5 424,9.9 433.6,19.5 		"/>
	</g>
	<line class="st2" x1="424" y1="45.3" x2="424" y2="9.9"/>
</g>
<g>
	<path class="st2" d="M327.1,44.7h-9.3c-2.2,0-4-1.8-4-4V13.8c0-2.2,1.8-4,4-4h37.8c2.2,0,4,1.8,4,4v26.9c0,2.2-1.8,4-4,4h-9.3"/>
	<g>
		<polyline class="st2" points="346.4,52.8 336.8,62.5 327.1,52.8 		"/>
	</g>
	<line class="st2" x1="336.8" y1="27" x2="336.8" y2="62.5"/>
</g>
<path class="st3" d="M249.2,40.1h-6.3c-0.4,0-0.6-0.3-0.6-0.6v-3.6c0-0.4,0.3-0.6,0.6-0.6h6.3c0.4,0,0.6,0.3,0.6,0.6v3.6
	C249.8,39.8,249.5,40.1,249.2,40.1z"/>
<line class="st2" x1="237" y1="28.6" x2="278.2" y2="28.6"/>
<g>
	<circle class="st4" cx="29.1" cy="119.9" r="7.9"/>
	<path class="st4" d="M14.6,142.4c0-4.8,6.5-8.7,14.5-8.7s14.5,3.9,14.5,8.7"/>
	<path class="st5" d="M49,149.8H7.5c-1.2,0-2.1-1-2.1-2.1v-42.5c0-1.2,1-2.1,2.1-2.1H49c1.2,0,2.1,1,2.1,2.1v42.5
		C51.1,148.9,50.2,149.8,49,149.8z"/>
	<path class="st1" d="M123.5,62.5H82c-1.2,0-2.1-1-2.1-2.1V17.9c0-1.2,1-2.1,2.1-2.1h41.5c1.2,0,2.1,1,2.1,2.1v42.5
		C125.6,61.5,124.7,62.5,123.5,62.5z"/>
	<path class="st5" d="M123.5,149.8H82c-1.2,0-2.1-1-2.1-2.1v-42.5c0-1.2,1-2.1,2.1-2.1h41.5c1.2,0,2.1,1,2.1,2.1v42.5
		C125.6,148.9,124.7,149.8,123.5,149.8z"/>
</g>
<circle class="st4" cx="263.7" cy="131" r="9.7"/>
<path class="st5" d="M278.8,146h-41.5c-1.2,0-2.1-1-2.1-2.1v-32c0-1.2,1-2.1,2.1-2.1h41.5c1.2,0,2.1,1,2.1,2.1v32
	C280.9,145,280,146,278.8,146z"/>
<g>
	<path class="st5" d="M145.6,108.8h41.1c2.4,0,4.4,2,4.4,4.4v42.2"/>
</g>
<g>
	<path class="st5" d="M205.4,141.6h-41.1c-2.4,0-4.4-2-4.4-4.4V95.1"/>
</g>
<g>
	<path class="st6" d="M433.6,115h9.3c2.2,0,4,1.8,4,4v26.9c0,2.2-1.8,4-4,4h-37.8c-2.2,0-4-1.8-4-4v-26.9c0-2.2,1.8-4,4-4h9.3"/>
	<g>
		<polyline class="st6" points="414.4,106.9 424,97.2 433.6,106.9 		"/>
	</g>
	<line class="st6" x1="424" y1="132.7" x2="424" y2="97.2"/>
</g>
<g>
	<path class="st6" d="M327.1,132.1h-9.3c-2.2,0-4-1.8-4-4v-26.9c0-2.2,1.8-4,4-4h37.8c2.2,0,4,1.8,4,4v26.9c0,2.2-1.8,4-4,4h-9.3"/>
	<g>
		<polyline class="st6" points="346.4,140.2 336.8,149.8 327.1,140.2 		"/>
	</g>
	<line class="st6" x1="336.8" y1="114.4" x2="336.8" y2="149.8"/>
</g>
<path class="st7" d="M249.2,127.5h-6.3c-0.4,0-0.6-0.3-0.6-0.6v-3.6c0-0.4,0.3-0.6,0.6-0.6h6.3c0.4,0,0.6,0.3,0.6,0.6v3.6
	C249.8,127.2,249.5,127.5,249.2,127.5z"/>
<line class="st6" x1="237" y1="116" x2="278.2" y2="116"/>
<g>
	<line class="st8" x1="94.8" y1="31.2" x2="110.6" y2="47"/>
	<line class="st8" x1="110.6" y1="31.2" x2="94.8" y2="47"/>
</g>
<g>
	<line class="st9" x1="94.8" y1="118.6" x2="110.6" y2="134.4"/>
	<line class="st9" x1="110.6" y1="118.6" x2="94.8" y2="134.4"/>
</g>
</svg>
